PathFileType	4	(X/Y/Z)	 s04c0301.trc
DataRate	CameraRate	NumFrames	NumMarkers	Units	OrigDataRate	OrigDataStartFrame	OrigNumFrames
200	200	4	50	mm	200	1501	2000
Frame#	Time	racr			lacr			c7			jug			rlel			rdr			llel			ldr			s2			lic			ric			lasi			rasi			rpsi			lpsi			rgt			lgt			rth1			rth2			rth3			rth4			rlfc			rmfc			rsh1			rsh2			rsh3			rsh4			rlmal			rmmal			rcal			rtoe			rmt5			lth1			lth2			lth4			lth3			llfc			lmfc			lsh1			lsh2			lsh3			lsh4			llmal			lmmal			lcal			ltoe			lmt5			SBIKE			LBIKE			RBIKE			
		X1	Y1	Z1	X2	Y2	Z2	X3	Y3	Z3	X4	Y4	Z4	X5	Y5	Z5	X6	Y6	Z6	X7	Y7	Z7	X8	Y8	Z8	X9	Y9	Z9	X10	Y10	Z10	X11	Y11	Z11	X12	Y12	Z12	X13	Y13	Z13	X14	Y14	Z14	X15	Y15	Z15	X16	Y16	Z16	X17	Y17	Z17	X18	Y18	Z18	X19	Y19	Z19	X20	Y20	Z20	X21	Y21	Z21	X22	Y22	Z22	X23	Y23	Z23	X24	Y24	Z24	X25	Y25	Z25	X26	Y26	Z26	X27	Y27	Z27	X28	Y28	Z28	X29	Y29	Z29	X30	Y30	Z30	X31	Y31	Z31	X32	Y32	Z32	X33	Y33	Z33	X34	Y34	Z34	X35	Y35	Z35	X36	Y36	Z36	X37	Y37	Z37	X38	Y38	Z38	X39	Y39	Z39	X40	Y40	Z40	X41	Y41	Z41	X42	Y42	Z42	X43	Y43	Z43	X44	Y44	Z44	X45	Y45	Z45	X46	Y46	Z46	X47	Y47	Z47	X48	Y48	Z48	X49	Y49	Z49	X50	Y50	Z50	
1501	7.5050	859.558474	1243.033036	-125.336829	868.590071	1196.688372	-420.898224	883.263968	1294.640100	-280.490979	807.777895	1163.406440	-265.387639	586.766258	1139.268570	28.440020	710.173730	912.050042	-76.050938	614.202676	1128.852878	-562.837853	712.081734	920.996813	-446.122727	276.769083	1294.754020	-219.256875	404.044382	1278.619271	-402.536908	446.531473	1235.008888	-81.765459	434.617564	1221.785319	-370.510053	459.520348	1176.568117	-134.204361	328.081493	1321.651329	-180.983882	314.688041	1335.472130	-250.453505	373.085170	1187.460705	-64.741998	355.968045	1210.786598	-427.741671	374.458620	1022.517112	-44.649608	389.198949	935.951963	-53.990789	361.148980	855.355184	-65.220192	423.040841	935.481539	-70.631241	349.629498	710.519732	-100.280099	321.387977	704.922373	-212.393620	273.207406	612.343415	-75.797422	242.206145	529.024441	-94.280790	173.510153	476.255627	-100.816222	268.919243	514.518189	-118.504238	96.143199	344.726555	-109.303651	117.486220	344.321209	-194.152279	29.788589	363.016014	-146.879094	244.756495	147.868561	-160.461120	181.966234	173.304004	-101.310687	409.068551	1138.759366	-433.646470	486.072185	1098.175399	-436.082833	509.890005	1123.916199	-425.209628	532.906248	1023.614941	-444.393515	632.066725	898.754093	-429.497941	659.098167	866.204208	-315.998187	570.882710	806.752293	-453.178349	525.984594	732.952271	-437.227733	448.615681	688.630077	-436.949484	546.991438	714.431424	-409.863388	337.922300	586.471094	-433.591354	338.612336	590.684844	-344.551897	256.348694	612.516253	-394.831053	489.167029	418.847914	-395.948844	413.183317	434.973020	-460.423195	-177.478279	939.086372	-279.119662	-3.187610	85.992631	-484.674839	-15.020288	80.569496	-84.219271	
1502	7.5100	859.671453	1244.463126	-125.566814	867.754241	1195.939881	-420.543405	883.263862	1294.998127	-280.387122	807.169999	1164.246392	-264.272835	587.912614	1139.771036	29.099382	710.309027	912.084140	-75.924522	613.780407	1129.276070	-563.590262	712.012991	921.818140	-446.760834	277.036349	1297.602385	-221.672685	404.887856	1279.290186	-403.963864	445.416297	1238.583643	-82.760621	434.909257	1222.447311	-371.380619	458.737305	1179.097406	-134.247886	328.284006	1324.064495	-183.354886	315.102244	1338.069166	-252.830087	372.410765	1191.145765	-65.533165	356.225818	1212.066960	-429.035142	376.219037	1024.875370	-45.584691	393.273494	938.699322	-55.515058	367.775708	857.438773	-66.369110	427.186271	939.210168	-71.751012	358.283805	712.850652	-100.766977	329.821073	707.664818	-212.583112	278.270810	616.315950	-76.181969	244.140029	533.681868	-95.145096	174.490029	483.348867	-101.979409	270.743188	518.906964	-119.474318	92.527932	354.530704	-111.262671	115.339796	352.956435	-195.877834	27.144713	374.104809	-150.289928	236.275924	152.653671	-158.317122	173.426448	180.751910	-100.824297	407.760807	1138.392678	-434.590930	484.161198	1096.500762	-436.668281	508.174510	1122.276876	-426.182570	529.790015	1021.257560	-444.486226	628.850441	893.478098	-428.705633	654.164322	862.431950	-315.726304	567.315092	800.488175	-452.516399	523.792138	725.967211	-437.032330	447.278512	680.191622	-436.962342	545.048967	707.994164	-409.569911	338.533441	576.950744	-434.245874	337.846849	581.026447	-344.311848	255.515126	599.261243	-395.518351	496.650569	416.104208	-395.999837	420.047801	428.612647	-460.500499	-177.402341	939.131751	-279.143731	-3.186444	86.006177	-484.658909	-14.981596	80.583679	-84.197380	
1503	7.5150	859.831751	1245.994478	-125.681980	866.971899	1195.536977	-420.210015	883.236956	1295.743568	-280.146828	806.730636	1165.365824	-263.064048	589.097798	1140.232592	29.899014	709.762340	911.682745	-77.144307	613.442813	1129.531229	-564.138930	712.009790	922.562111	-447.479207	277.293592	1300.336301	-224.213045	405.857578	1279.803496	-405.416020	444.014807	1242.080875	-83.880082	435.221977	1222.949140	-372.242398	457.594554	1181.671471	-134.525086	326.793963	1326.789928	-183.579532	315.273960	1340.550124	-254.940915	371.794212	1194.826322	-66.416608	356.001208	1212.713356	-429.998422	378.421469	1027.257218	-46.491337	397.878432	941.665989	-57.143032	374.670634	859.681968	-67.571474	432.005108	943.504502	-72.892248	367.942880	715.217388	-101.179926	338.876964	710.342462	-212.571112	283.816247	620.549963	-76.527388	247.271029	539.013127	-95.739067	176.010939	490.927935	-103.164202	273.484511	523.367817	-120.203092	89.806291	364.521136	-113.460400	113.679953	362.134706	-197.629075	25.196033	385.274142	-153.937140	228.674997	158.534677	-157.099668	165.766784	188.783466	-100.809252	406.458628	1137.527704	-435.527018	482.135268	1094.427339	-437.452995	506.354518	1119.994443	-427.229591	526.518928	1018.347359	-444.587296	624.343868	888.983427	-427.475313	648.548605	857.685138	-315.510237	563.476637	792.892447	-452.879733	521.459996	717.780071	-436.925762	445.575861	670.721662	-436.931787	542.639671	700.622364	-409.039811	338.529805	566.099367	-434.516729	336.894457	570.588327	-344.338886	254.588095	585.180797	-395.868462	503.457274	412.702052	-396.184401	426.404155	421.750709	-460.662853	-177.329272	939.185349	-279.211194	-3.187928	86.007119	-484.679545	-14.982110	80.602837	-84.206510	
1504	7.5200	860.036388	1247.586246	-125.698858	866.292722	1195.384221	-419.816597	883.335539	1296.313072	-279.962817	806.219743	1166.401437	-262.159765	590.321773	1140.695791	30.859675	709.957852	911.773719	-77.016956	613.376573	1129.817098	-564.952517	712.042715	923.206237	-448.181714	277.553077	1302.988718	-227.054371	408.775614	1280.490657	-407.942177	442.865397	1245.435425	-84.684494	435.543079	1223.277358	-373.085228	456.632319	1184.062912	-135.094339	326.639930	1328.551418	-185.961399	315.142448	1342.605723	-256.726422	371.179483	1198.403604	-67.349195	355.742442	1212.870733	-431.125111	380.924271	1029.793609	-47.994929	403.003939	944.775395	-58.713528	382.336938	862.155581	-68.579816	436.997345	947.620136	-74.362316	378.015150	717.749153	-101.314516	348.475828	712.940893	-212.475384	289.569465	625.099077	-76.677991	250.823753	544.736312	-96.196681	178.031907	498.899060	-104.182035	276.659460	528.403931	-120.704362	87.678770	375.022112	-115.135162	112.300791	371.671319	-199.212340	23.975482	396.863660	-156.959450	221.624303	164.817357	-156.040455	158.761462	197.153711	-100.859923	405.175176	1136.280785	-436.496630	480.110384	1091.674659	-438.269673	505.082365	1116.437088	-428.175975	523.027802	1014.651207	-444.747030	618.443145	883.210005	-426.904254	642.285055	852.178657	-315.400289	559.626766	784.149086	-453.072368	518.655328	708.855586	-436.418838	443.684868	660.470547	-436.750636	539.970358	692.302332	-408.242502	338.426778	554.519116	-434.730404	335.406057	558.757990	-344.787540	254.068771	570.278977	-396.128611	509.635837	408.366182	-396.317929	432.307383	414.070858	-460.809522	-177.265037	939.214775	-279.337194	-3.175706	86.016395	-484.685816	-14.954417	80.635057	-84.214260	
